{"title":"Cleopatra (1963) DVDrip [2DVDs] Greek Subs Omifast","uid":6339971,"size":1458232043,"categoryP":"video","categoryS":"movies","magnet":"?xt=urn:btih:74aad1c64d949992bfb8ced5ee6db8bad917b6c3&amp;dn=Cleopatra+%281963%29+DVDrip+%5B2DVDs%5D+Greek+Subs+Omifast&amp;tr=udp%3A%2F%2Ftracker.openbittorrent.com%3A80&amp;tr=udp%3A%2F%2Fopen.demonii.com%3A1337&amp;tr=udp%3A%2F%2Ftracker.coppersurfer.tk%3A6969&amp;tr=udp%3A%2F%2Fexodus.desync.com%3A6969","seeders":0,"leechers":1,"uploader":"OmifastGR","files":-1,"time":1303611803,"description":"-------------------------------------------------\nAVC (Advanced Video Coding) H264\nHigh Efficiency Dolby Digital Stereo\n-------------------------------------------------\n\nIMDB &lt;a href=&quot;\nhttp://www.imdb.com/title/tt0056937/&quot; rel=&quot;nofollow&quot; target=&quot;_NEW&quot;&gt;\nhttp://www.imdb.com/title/tt0056937/&lt;/a&gt;\n\n\nCleopatra is a historical epic film starring Elizabeth Taylor, Rex Harrison (Julius Caesar) and Richard Burton (Mark Antony) and a host of other stars. Released in 1963, the film was a box office smash. Historically correct in most aspects, all the major characters are real. Although some liberties were taken with time and space, for the most part they really behaved as they are presented with the exception of Octavian, who is portrayed in a very negative light. He was actually a much better person than shown here, but then this is Cleopatra's movie after all.\n\n\nThe film is divided into two halves. Part I deals with Cleopatra and Julius Caesar and Part II with Cleopatra and Mark Antony.\n\n\n\nCleopatra (1963) DVDrip [2DVDs] Greek Subs Omifast Media Info\n\nFormat                           : MPEG-4\nFormat profile                   : Base Media / Version 2\nCodec ID                         : mp42\nFile size                        : 687 MiB\nDuration                         : 1h 54mn\nOverall bit rate                 : 838 Kbps\n\nVideo\nFormat/Info                      : Advanced Video Codec\nCodec ID/Info                    : Advanced Video Coding\nDuration                         : 1h 54mn\nBit rate mode                    : Variable\nBit rate                         : 734 Kbps\nMaximum bit rate                 : 4 048 Kbps\nWidth                            : 720 pixels\nHeight                           : 400 pixels\nDisplay aspect ratio             : 16:9\nFrame rate                       : 25.000 fps\nStandard                         : PAL\nStream size                      : 602 MiB (88%)\nLanguage                         : English\n\nAudio\nFormat/Info                      : Advanced Audio Codec\nFormat profile                   : HE-AAC / LC\nDuration                         : 1h 54mn\nBit rate mode                    : Variable\nBit rate                         : 96.0 Kbps\nMaximum bit rate                 : 107 Kbps\nChannel(s)                       : 2 channels\nChannel positions                : Front: L R\nSampling rate                    : 48.0 KHz / 24.0 KHz\nCompression mode                 : Lossy\nStream size                      : 78.8 MiB (11%)\nTitle                            : English\nLanguage                         : English\n\nText\nDuration                         : 1h 50mn\nBit rate mode                    : Variable\nBit rate                         : 3 336 bps\nMaximum bit rate                 : 66.9 Kbps\nStream size                      : 2.64 MiB (0%)\nTitle                            : Greek\nLanguage                         : Greek\n","torrent":{"xt":"urn:btih:74aad1c64d949992bfb8ced5ee6db8bad917b6c3","amp;dn":"Cleopatra+%281963%29+DVDrip+%5B2DVDs%5D+Greek+Subs+Omifast","amp;tr":["udp%3A%2F%2Ftracker.openbittorrent.com%3A80","udp%3A%2F%2Fopen.demonii.com%3A1337","udp%3A%2F%2Ftracker.coppersurfer.tk%3A6969","udp%3A%2F%2Fexodus.desync.com%3A6969"],"infoHash":"74aad1c64d949992bfb8ced5ee6db8bad917b6c3","infoHashBuffer":{"type":"Buffer","data":[116,170,209,198,77,148,153,146,191,184,206,213,238,109,184,186,217,23,182,195]},"announce":[],"urlList":[]}}